# xmcd
# 
# Track frame offsets:
#     150
#     15702
#     32168
#     51986
#     64450
#     78839
#     97200
#     116056
#     135926
#     154024
#     172081
#     184496
# 
# Disc length: 2638
# 
# Revision: 0
# Processed by: cddbd v1.5.2PL0 Copyright (c) Steve Scherf et al.
# Submitted via: fre:ac v1.0.31
# 
DISCID=a80a4c0c
DTITLE=Vince Halfhide - Vince Halfhide
DYEAR=2018
DGENRE=Folk
TTITLE0=Memphis Rounder
TTITLE1=Kingdom Come
TTITLE2=Teizo's Song
TTITLE3=No Water No More
TTITLE4=Cobalt Miner's Daughter
TTITLE5=Sonny Boy Said
TTITLE6=Sleepy Little Town
TTITLE7=If You Break Her Heart
TTITLE8=The Junk Man's Singing
TTITLE9=Devil Made Rock and Roll
TTITLE10=Careers
TTITLE11=Fireflies
EXTD=
EXTT0=
EXTT1=
EXTT2=
EXTT3=
EXTT4=
EXTT5=
EXTT6=
EXTT7=
EXTT8=
EXTT9=
EXTT10=
EXTT11=
PLAYORDER=
